<svg width="1024" height="1024" viewBox="0 0 1024 1024" xmlns="http://www.w3.org/2000/svg" role="img" aria-label="Todo Do cute icon sample 03">
  <defs>
    <linearGradient id="bg3" x1="0" y1="0" x2="1" y2="1">
      <stop offset="0%" stop-color="#E8D9FF"/>
      <stop offset="50%" stop-color="#D3BEFF"/>
      <stop offset="100%" stop-color="#C0A7FF"/>
    </linearGradient>
    <filter id="shadow3" x="-20%" y="-20%" width="140%" height="140%">
      <feDropShadow dx="0" dy="10" stdDeviation="14" flood-color="#6D56B0" flood-opacity="0.24"/>
    </filter>
  </defs>

  <rect x="32" y="32" width="960" height="960" rx="220" fill="url(#bg3)"/>

  <path d="M152 386c0-120 97-217 217-217h286c120 0 217 97 217 217v252c0 120-97 217-217 217H369c-120 0-217-97-217-217z" fill="#FFFFFF" filter="url(#shadow3)"/>

  <circle cx="322" cy="384" r="30" fill="#8DD7B1"/>
  <circle cx="322" cy="512" r="30" fill="#9DC8FF"/>
  <circle cx="322" cy="640" r="30" fill="#F9C38E"/>

  <path d="M304 384l14 14 24-27" fill="none" stroke="#fff" stroke-width="9" stroke-linecap="round" stroke-linejoin="round"/>
  <path d="M304 512l14 14 24-27" fill="none" stroke="#fff" stroke-width="9" stroke-linecap="round" stroke-linejoin="round"/>
  <path d="M304 640l14 14 24-27" fill="none" stroke="#fff" stroke-width="9" stroke-linecap="round" stroke-linejoin="round"/>

  <text x="395" y="468" font-family="Avenir Next Rounded, Nunito, Arial Rounded MT Bold, sans-serif" font-size="126" font-weight="900" fill="#6252A2">Todo</text>
  <text x="395" y="634" font-family="Avenir Next Rounded, Nunito, Arial Rounded MT Bold, sans-serif" font-size="136" font-weight="900" fill="#4E87D8">Do!</text>

  <circle cx="812" cy="262" r="36" fill="#F6F0FF" opacity="0.9"/>
  <circle cx="780" cy="794" r="52" fill="#EEE4FF" opacity="0.8"/>
</svg>
