<svg width="1024" height="1024" viewBox="0 0 1024 1024" xmlns="http://www.w3.org/2000/svg" role="img" aria-label="Todo Do cute icon sample 04">
  <defs>
    <linearGradient id="bg4" x1="0" y1="0" x2="1" y2="1">
      <stop offset="0%" stop-color="#D8FFF1"/>
      <stop offset="55%" stop-color="#BDF6E3"/>
      <stop offset="100%" stop-color="#A5EAD4"/>
    </linearGradient>
    <filter id="shadow4" x="-20%" y="-20%" width="140%" height="140%">
      <feDropShadow dx="0" dy="12" stdDeviation="16" flood-color="#3F9C7A" flood-opacity="0.18"/>
    </filter>
  </defs>

  <rect x="32" y="32" width="960" height="960" rx="220" fill="url(#bg4)"/>

  <rect x="134" y="210" width="756" height="604" rx="156" fill="#FFFFFF" filter="url(#shadow4)"/>

  <path d="M210 336h604" stroke="#E6F7EF" stroke-width="14" stroke-linecap="round"/>
  <path d="M210 500h604" stroke="#E6F7EF" stroke-width="14" stroke-linecap="round"/>
  <path d="M210 664h604" stroke="#E6F7EF" stroke-width="14" stroke-linecap="round"/>

  <circle cx="266" cy="336" r="26" fill="#7FD0AA"/>
  <circle cx="266" cy="500" r="26" fill="#7FB5E8"/>
  <circle cx="266" cy="664" r="26" fill="#F4B986"/>

  <text x="320" y="390" font-family="Avenir Next Rounded, Nunito, Arial Rounded MT Bold, sans-serif" font-size="122" font-weight="900" fill="#2E8F72">Todo</text>
  <text x="320" y="582" font-family="Avenir Next Rounded, Nunito, Arial Rounded MT Bold, sans-serif" font-size="132" font-weight="900" fill="#2278C5">Do!</text>

  <path d="M734 706c20-36 63-46 91-22 29 24 30 70 2 97-28 27-74 26-98-4-22-27-20-53 5-71z" fill="#FFF5E8"/>
  <path d="M748 736l18 18 34-36" fill="none" stroke="#E0A263" stroke-width="10" stroke-linecap="round" stroke-linejoin="round"/>
</svg>
