<svg width="1024" height="1024" viewBox="0 0 1024 1024" xmlns="http://www.w3.org/2000/svg" role="img" aria-label="Todo Do cute icon sample 02">
  <defs>
    <linearGradient id="bg2" x1="0" y1="0" x2="1" y2="1">
      <stop offset="0%" stop-color="#FFE9CC"/>
      <stop offset="55%" stop-color="#FFD8B3"/>
      <stop offset="100%" stop-color="#FFC39A"/>
    </linearGradient>
    <filter id="shadow2" x="-20%" y="-20%" width="140%" height="140%">
      <feDropShadow dx="0" dy="12" stdDeviation="16" flood-color="#BF6E3A" flood-opacity="0.18"/>
    </filter>
  </defs>

  <rect x="32" y="32" width="960" height="960" rx="220" fill="url(#bg2)"/>

  <circle cx="790" cy="205" r="62" fill="#FFF5E7" opacity="0.88"/>
  <circle cx="210" cy="810" r="44" fill="#FFF0DF" opacity="0.75"/>

  <rect x="154" y="170" width="716" height="684" rx="150" fill="#FFFFFF" filter="url(#shadow2)"/>

  <rect x="224" y="280" width="130" height="130" rx="40" fill="#A6E6C2"/>
  <path d="M262 346l24 24 42-46" fill="none" stroke="#fff" stroke-width="12" stroke-linecap="round" stroke-linejoin="round"/>

  <rect x="224" y="450" width="130" height="130" rx="40" fill="#A9D7FF"/>
  <path d="M262 516l24 24 42-46" fill="none" stroke="#fff" stroke-width="12" stroke-linecap="round" stroke-linejoin="round"/>

  <rect x="224" y="620" width="130" height="130" rx="40" fill="#FFD39C"/>
  <path d="M262 686l24 24 42-46" fill="none" stroke="#fff" stroke-width="12" stroke-linecap="round" stroke-linejoin="round"/>

  <text x="390" y="430" font-family="Avenir Next Rounded, Nunito, Arial Rounded MT Bold, sans-serif" font-size="122" font-weight="900" fill="#A45B2D">Todo</text>
  <text x="390" y="610" font-family="Avenir Next Rounded, Nunito, Arial Rounded MT Bold, sans-serif" font-size="130" font-weight="900" fill="#D86C34">Do!</text>

  <circle cx="742" cy="695" r="46" fill="#FFF1E1"/>
  <path d="M742 672v46M719 695h46" stroke="#E58D53" stroke-width="10" stroke-linecap="round"/>
</svg>
